HIERARCHY
ROOT Hips
{
	OFFSET	0.00	0.00	0.00
	CHANNELS 6 Xposition Yposition Zposition Zrotation Xrotation Yrotation
	JOINT LeftUpLeg
	{
		OFFSET	 0.126116	-0.014019	-0.065224
		CHANNELS 3 Zrotation Xrotation Yrotation
		JOINT LeftLeg
		{
			OFFSET	 0.000000	 0.000000	 0.569914
			CHANNELS 3 Zrotation Xrotation Yrotation
			JOINT LeftFoot
			{
				OFFSET	 0.000000	 0.000000	 0.544423
				CHANNELS 3 Zrotation Xrotation Yrotation
				JOINT LeftToeBase
				{
					OFFSET	 0.000000	 0.000000	 0.207117
					CHANNELS 3 Zrotation Xrotation Yrotation
					End Site
					{
						OFFSET	 0.000000	 0.000000	 0.207117
					}
				}
			}
		}
	}
	JOINT RightUpLeg
	{
		OFFSET	-0.124023	-0.008373	-0.065224
		CHANNELS 3 Zrotation Xrotation Yrotation
		JOINT RightLeg
		{
			OFFSET	 0.000000	 0.000000	 0.570047
			CHANNELS 3 Zrotation Xrotation Yrotation
			JOINT RightFoot
			{
				OFFSET	 0.000000	 0.000000	 0.544354
				CHANNELS 3 Zrotation Xrotation Yrotation
				JOINT RightToeBase
				{
					OFFSET	 0.000000	 0.000000	 0.207540
					CHANNELS 3 Zrotation Xrotation Yrotation
					End Site
					{
						OFFSET	 0.000000	 0.000000	 0.207540
					}
				}
			}
		}
	}
	JOINT Spine
	{
		OFFSET	 0.000184	-0.007763	 0.117403
		CHANNELS 3 Zrotation Xrotation Yrotation
		JOINT Spine1
		{
			OFFSET	 0.000000	 0.000000	 0.137269
			CHANNELS 3 Zrotation Xrotation Yrotation
			JOINT Spine2
			{
				OFFSET	 0.000000	 0.000000	 0.156879
				CHANNELS 3 Zrotation Xrotation Yrotation
				JOINT LeftShoulder
				{
					OFFSET	 0.080501	-0.002496	 0.160144
					CHANNELS 3 Zrotation Xrotation Yrotation
					JOINT LeftArm
					{
						OFFSET	 0.000000	 0.000000	 0.164363
						CHANNELS 3 Zrotation Xrotation Yrotation
						JOINT LeftForeArm
						{
							OFFSET	 0.000000	 0.000000	 0.364576
							CHANNELS 3 Zrotation Xrotation Yrotation
							JOINT LeftHand
							{
								OFFSET	 0.000000	 0.000000	 0.360812
								CHANNELS 3 Zrotation Xrotation Yrotation
								JOINT LeftHandIndex1
								{
									OFFSET	 0.000000	 0.000000	 0.086006
									CHANNELS 3 Zrotation Xrotation Yrotation
									JOINT LeftHandIndex2
									{
										OFFSET	 0.000000	 0.000000	 0.047236
										CHANNELS 3 Zrotation Xrotation Yrotation
										JOINT LeftHandIndex3
										{
											OFFSET	-0.004284	-0.000551	 0.038166
											CHANNELS 3 Zrotation Xrotation Yrotation
											End Site
											{
												OFFSET	-0.004284	-0.000551	 0.038166
											}
										}
									}
								}
							}
						}
					}
				}
				JOINT Neck
				{
					OFFSET	 0.000000	 0.000000	 0.176489
					CHANNELS 3 Zrotation Xrotation Yrotation
					JOINT Head
					{
						OFFSET	 0.000000	-0.001747	 0.077940
						CHANNELS 3 Zrotation Xrotation Yrotation
						End Site
						{
							OFFSET	 0.000000	-0.001747	 0.077940
						}
					}
				}
				JOINT RightShoulder
				{
					OFFSET	-0.080363	 0.000306	 0.159706
					CHANNELS 3 Zrotation Xrotation Yrotation
					JOINT RightArm
					{
						OFFSET	 0.000000	 0.000000	 0.164196
						CHANNELS 3 Zrotation Xrotation Yrotation
						JOINT RightForeArm
						{
							OFFSET	 0.000000	 0.000000	 0.365611
							CHANNELS 3 Zrotation Xrotation Yrotation
							JOINT RightHand
							{
								OFFSET	 0.000000	 0.000000	 0.360648
								CHANNELS 3 Zrotation Xrotation Yrotation
								JOINT RightHandIndex1
								{
									OFFSET	 0.000000	 0.000000	 0.069977
									CHANNELS 3 Zrotation Xrotation Yrotation
									JOINT RightHandIndex2
									{
										OFFSET	 0.000000	 0.000000	 0.052305
										CHANNELS 3 Zrotation Xrotation Yrotation
										JOINT RightHandIndex3
										{
											OFFSET	 0.009002	-0.000782	 0.042196
											CHANNELS 3 Zrotation Xrotation Yrotation
											End Site
											{
												OFFSET	 0.009002	-0.000782	 0.042196
											}
										}
									}
								}
							}
						}
					}
				}
			}
		}
	}
}
MOTION
Frames:    6
Frame Time: 0.03333334
-0.000379	 0.017481	 1.302204	-0.001171	 0.015753	-0.069717	-17.760770	-1.778550	-179.149300	 1.471100	-12.129600	-0.708428	-3.156897	 65.701530	-3.328988	-2.385833	 28.452760	 0.000004	 17.640640	-2.284208	 179.329500	-1.449243	-12.796260	 0.734895	 3.155282	 65.844710	 3.162320	 2.384658	 28.388730	 0.000004	 1.463090	 1.830403	 0.062523	 0.806899	 6.775032	 0.263510	-2.360183	-8.689849	-0.626050	-91.776050	 78.527430	 179.999900	 63.780720	 44.015250	-43.912010	-7.587185	 5.129603	-12.942260	-29.765280	-1.123240	-4.268521	-2.635965	 4.993658	 6.788941	-5.165319	 0.784187	 3.516649	-5.225038	 0.466231	 0.424329	-0.000002	-3.783157	-0.089647	-2.198800	 3.074666	 0.059004	 89.782200	 78.203900	 179.999900	 6.102162	 13.138800	 88.792920	-33.811650	-4.217706	 12.651540	 4.269696	-1.784145	-6.080051	 6.112037	 4.509576	-0.364401	 4.968462	 1.518543	-9.347576	 5.168945	 0.703820	 2.021906
-0.000413	 0.017400	 1.303578	-0.000969	 0.014165	-0.088894	-17.752390	-1.772616	-179.132300	 1.471355	-12.108860	-0.707183	-3.175967	 65.468350	-3.304892	-2.385833	 28.452760	 0.000004	 17.632710	-2.296279	 179.344400	-1.448727	-12.835400	 0.737218	 3.176220	 65.641590	 3.136318	 2.384658	 28.388730	 0.000004	 1.752453	 1.860702	 0.061171	 0.957324	 6.679057	 0.310392	-2.812490	-8.552213	-0.740032	-91.776140	 78.527490	 180.000000	 63.804040	 43.995540	-44.042530	-7.595520	 5.093353	-12.848750	-29.674550	-0.101352	-4.250705	-2.635965	 4.993658	 6.788941	-5.165319	 0.784187	 3.516649	-5.225038	 0.466231	 0.424329	-0.000002	-3.783157	-0.089647	-2.628109	 3.113051	 0.071412	 89.782150	 78.203900	 180.000000	 6.189702	 13.272760	 88.839930	-33.913620	-4.236885	 12.633770	 4.372023	-0.842868	-6.136419	 6.112037	 4.509576	-0.364401	 4.968462	 1.518543	-9.347576	 5.168945	 0.703820	 2.021906
-0.000445	 0.017323	 1.304867	-0.000617	 0.012356	-0.107096	-17.744510	-1.768901	-179.115700	 1.471562	-12.093690	-0.706267	-3.193642	 65.251270	-3.282393	-2.385833	 28.452760	 0.000004	 17.624880	-2.308335	 179.358400	-1.448206	-12.874420	 0.739536	 3.195324	 65.451770	 3.112270	 2.384658	 28.388730	 0.000004	 2.014763	 1.893800	 0.060045	 1.092804	 6.574141	 0.354444	-3.221113	-8.402377	-0.841268	-91.776160	 78.527450	 180.000000	 63.840860	 43.961010	-44.183050	-7.602641	 5.062154	-12.768280	-29.581970	 0.971406	-4.234683	-2.635965	 4.993658	 6.788941	-5.165319	 0.784187	 3.516649	-5.225038	 0.466231	 0.424329	-0.000002	-3.783157	-0.089647	-3.017599	 3.155741	 0.083128	 89.782100	 78.203900	 180.000000	 6.287930	 13.421510	 88.889930	-34.016780	-4.257309	 12.618300	 4.488116	 0.143447	-6.195612	 6.112037	 4.509576	-0.364401	 4.968462	 1.518543	-9.347576	 5.168945	 0.703820	 2.021906
-0.000479	 0.017233	 1.306310	-0.000577	 0.010602	-0.123882	-17.735280	-1.766489	-179.100500	 1.471698	-12.082160	-0.705572	-3.213718	 65.010580	-3.256682	-2.385833	 28.452760	 0.000004	 17.616280	-2.321834	 179.371200	-1.447657	-12.915550	 0.741982	 3.216805	 65.237510	 3.085010	 2.384658	 28.388730	 0.000004	 2.296640	 1.935199	 0.055185	 1.237542	 6.440158	 0.401890	-3.657734	-8.212226	-0.946347	-91.776180	 78.527450	 180.000000	 63.905770	 43.910820	-44.378750	-7.611067	 5.024891	-12.672190	-29.473680	 2.245176	-4.219277	-2.635965	 4.993658	 6.788941	-5.165319	 0.784187	 3.516649	-5.225038	 0.466231	 0.424329	-0.000002	-3.783157	-0.089647	-3.436138	 3.211363	 0.096336	 89.782030	 78.203870	-180.000000	 6.393166	 13.635700	 88.941380	-34.143400	-4.284856	 12.606880	 4.646450	 1.358110	-6.259764	 6.112037	 4.509576	-0.364401	 4.968462	 1.518543	-9.347576	 5.168945	 0.703820	 2.021906
-0.000504	 0.017144	 1.307665	-0.000735	 0.009107	-0.137004	-17.726230	-1.765776	-179.088700	 1.471782	-12.075950	-0.705203	-3.232775	 64.784840	-3.232072	-2.385833	 28.452760	 0.000004	 17.608110	-2.334517	 179.381200	-1.447182	-12.952340	 0.744171	 3.236895	 65.033330	 3.059225	 2.384658	 28.388730	 0.000004	 2.550270	 1.978416	 0.047883	 1.366835	 6.298282	 0.445257	-4.048202	-8.012173	-1.037242	-91.776150	 78.527430	 180.000000	 63.992000	 43.859040	-44.604950	-7.618928	 4.990151	-12.582670	-29.371520	 3.445618	-4.208743	-2.635965	 4.993658	 6.788941	-5.165319	 0.784187	 3.516649	-5.225038	 0.466231	 0.424329	-0.000002	-3.783157	-0.089647	-3.812660	 3.271366	 0.108899	 89.782140	 78.203900	 180.000000	 6.449888	 13.834390	 88.964970	-34.260330	-4.315290	 12.610670	 4.370310	 2.682899	-6.306648	 6.112037	 4.509576	-0.364401	 4.968462	 1.518543	-9.347576	 5.168945	 0.703820	 2.021906
-0.000511	 0.017043	 1.308922	-0.000798	 0.007535	-0.149023	-17.717440	-1.766577	-179.077700	 1.471811	-12.073690	-0.705066	-3.251025	 64.567880	-3.208320	-2.385833	 28.452760	 0.000004	 17.599990	-2.347075	 179.390200	-1.446695	-12.988450	 0.746320	 3.255978	 64.835610	 3.034500	 2.384658	 28.388730	 0.000004	 2.782270	 2.024035	 0.040253	 1.484074	 6.148085	 0.486704	-4.403451	-7.801513	-1.117323	-91.776310	 78.527470	-179.999900	 64.103650	 43.814740	-44.872400	-7.625715	 4.959637	-12.504090	-29.278920	 4.512122	-4.203467	-2.635965	 4.993658	 6.788941	-5.165319	 0.784187	 3.516649	-5.225038	 0.466231	 0.424329	-0.000002	-3.783157	-0.089647	-4.157450	 3.336429	 0.121120	 89.782120	 78.203870	 180.000000	 6.465206	 14.201700	 89.057720	-34.227310	-4.250123	 12.449450	 3.804756	 3.922860	-6.324371	 6.112037	 4.509576	-0.364401	 4.968462	 1.518543	-9.347576	 5.168945	 0.703820	 2.021906
